<svg viewBox="0 0 24 24" xmlns="http://www.w3.org/2000/svg" xmlns:xlink="http://www.w3.org/1999/xlink" width="24.000000" height="24.000000" fill="none" customFrame="#000000">
	<rect id="icon/ ic_search" width="24.000000" height="24.000000" x="0.000000" y="0.000000" />
	<path id="Shape" d="M20.71 19.29L17.31 15.9C18.407 14.5025 19.0022 12.7767 19 11C19 6.58172 15.4183 3 11 3C6.58172 3 3 6.58172 3 11C3 15.4183 6.58172 19 11 19C12.7767 19.0022 14.5025 18.407 15.9 17.31L19.29 20.71C19.4778 20.8993 19.7334 21.0058 20 21.0058C20.2666 21.0058 20.5222 20.8993 20.71 20.71C20.8993 20.5222 21.0058 20.2666 21.0058 20C21.0058 19.7334 20.8993 19.4778 20.71 19.29ZM11 5C7.68629 5 5 7.68629 5 11C5 14.3137 7.68629 17 11 17C14.3137 17 17 14.3137 17 11C17 7.68629 14.3137 5 11 5Z" fill="rgb(51,51,51)" fill-rule="evenodd" />
</svg>
