<svg viewBox="0 0 32 32" xmlns="http://www.w3.org/2000/svg" xmlns:xlink="http://www.w3.org/1999/xlink" width="32.000000" height="32.000000" fill="none">
	<rect id="ThumbUpAlt" width="32.000000" height="32.000000" x="0.000000" y="0.000000" fill="currentColor" fill-opacity="0" />
	<path id="Vector" d="M2.66669 26.6666L5.33335 26.6666C6.06669 26.6666 6.66669 26.0666 6.66669 25.3333L6.66669 13.3333C6.66669 12.6 6.06669 12 5.33335 12L2.66669 12L2.66669 26.6666ZM29.1067 17.1733C29.2534 16.84 29.3334 16.48 29.3334 16.1066L29.3334 14.6666C29.3334 13.2 28.1334 12 26.6667 12L19.3334 12L20.56 5.79996C20.6267 5.50663 20.5867 5.18663 20.4534 4.91996C20.1467 4.31996 19.76 3.77329 19.28 3.29329L18.6667 2.66663L10.12 11.2133C9.61335 11.72 9.33335 12.4 9.33335 13.1066L9.33335 23.56C9.33335 25.2666 10.7334 26.6666 12.4534 26.6666L23.2667 26.6666C24.2 26.6666 25.08 26.1733 25.56 25.3733L29.1067 17.1733Z" fill="currentColor" fill-rule="nonzero" fill-opacity="0.540000021" />
</svg>
