<svg viewBox="0 0 32 32" xmlns="http://www.w3.org/2000/svg" xmlns:xlink="http://www.w3.org/1999/xlink" width="32.000000" height="32.000000" fill="none">
	<rect id="ThumbDownAlt" width="32.000000" height="32.000000" x="0.000000" y="0.000000" fill="currentColor" fill-opacity="0" transform="matrix(-1,0,0,1,32,0)" />
	<path id="Vector" d="M26.6667 0L24 0C23.2667 0 22.6667 0.6 22.6667 1.33333L22.6667 13.3333C22.6667 14.0667 23.2667 14.6667 24 14.6667L26.6667 14.6667L26.6667 0ZM0.226667 9.49333C0.0800001 9.82667 0 10.1867 0 10.56L0 12C0 13.4667 1.2 14.6667 2.66667 14.6667L10 14.6667L8.77333 20.8667C8.70667 21.16 8.74667 21.48 8.88 21.7467C9.18667 22.3467 9.57333 22.8933 10.0533 23.3733L10.6667 24L19.2133 15.4533C19.72 14.9467 20 14.2667 20 13.56L20 3.12C20 1.4 18.6 0 16.88 0L6.08 0C5.13333 0 4.26667 0.493333 3.78667 1.29333L0.226667 9.49333Z" fill="currentColor" fill-opacity="0.540000021" fill-rule="nonzero" transform="matrix(-1,0,0,1,29.3334,5.33325)" />
</svg>
